<?xml version="1.0" encoding="utf-8"?>
<!-- Generator: Adobe Illustrator 24.0.1, SVG Export Plug-In . SVG Version: 6.00 Build 0)  -->
<svg version="1.1" id="Capa_1" xmlns="http://www.w3.org/2000/svg" xmlns:xlink="http://www.w3.org/1999/xlink" x="0px" y="0px"
	 viewBox="0 0 1920 1080" style="enable-background:new 0 0 1920 1080;" xml:space="preserve">
<style type="text/css">
	.st0{fill:#FFFFFF;}
	.st1{fill:#C6F4FF;}
	.st2{fill:#F3FEFF;}
	.st3{opacity:0.54;fill:#FFFFFF;}
	.st4{opacity:0.3;fill:#F3FEFF;}
	.st5{opacity:0.48;fill:#F3FEFF;}
	.st6{opacity:0.73;fill:#F3FEFF;}
	.st7{fill:#AEE4ED;}
	.st8{fill:#30C5CC;}
	.st9{fill:#3D9CFF;}
	.st10{fill:#0B9B9B;}
	.st11{fill:#DB5A28;}
	.st12{fill:#2F2F8E;}
	.st13{fill:#4C49A2;}
	.st14{fill:#E67750;}
	.st15{fill:#EFEFEF;}
	.st16{fill:#FD9E71;}
	.st17{fill:#201251;}
	.st18{fill:#31D0A8;}
	.st19{fill:#FEBA40;}
	.st20{fill:#FEDB9B;}
	.st21{fill:#4CB0DD;}
	.st22{fill:#75D5EF;}
	.st23{fill:#FDBE44;}
	.st24{fill:#98DBE5;}
	.st25{fill:#86D2E8;}
	.st26{fill:#F6FFFA;}
	.st27{fill:#FFE780;}
	.st28{fill:#1FB288;}
	.st29{fill:#9E472D;}
	.st30{fill:#262845;}
	.st31{fill:#6AA5CC;}
	.st32{fill:#96C4EA;}
	.st33{fill:#1A133A;}
	.st34{fill:#E79673;}
</style>
<g>
	<g>
		<rect x="0.32" y="-62.34" class="st0" width="1919.68" height="1228.87"/>
	</g>
	<path class="st1" d="M0.32,1166.52h711.91c156.44-138.87,254.19-336.15,254.19-555.04c0-292.46-174.46-546.35-430.32-673.83H0.32
		V1166.52z"/>
	<circle class="st2" cx="577.78" cy="566.52" r="96.36"/>
	<path class="st3" d="M0.32,612.61c39.72,23.75,86.17,37.42,135.81,37.42c146.35,0,264.99-118.64,264.99-264.99
		c0-146.35-118.64-264.99-264.99-264.99c-49.65,0-96.09,13.67-135.81,37.42V612.61z"/>
	<circle class="st4" cx="812.25" cy="306.35" r="167.02"/>
	<circle class="st5" cx="500.7" cy="152.18" r="96.36"/>
	
		<ellipse transform="matrix(0.7071 -0.7071 0.7071 0.7071 -121.5092 672.6659)" class="st6" cx="751.22" cy="483.01" rx="61.03" ry="61.03"/>
</g>
<g>
	<path class="st7" d="M1179.53,984.42c0,9.35-57.48,16.93-128.39,16.93s-128.39-7.58-128.39-16.93c0-9.35,57.48-16.93,128.39-16.93
		S1179.53,975.07,1179.53,984.42z"/>
	<ellipse class="st7" cx="1631.02" cy="963.26" rx="129.8" ry="12.7"/>
	<polygon class="st8" points="827.99,819.69 812.7,819.69 812.7,804.4 803.17,804.4 803.17,819.69 787.88,819.69 787.88,829.23 
		803.17,829.23 803.17,844.51 812.7,844.51 812.7,829.23 827.99,829.23 	"/>
	<path class="st9" d="M841.9,791.56c0,5.21-4.23,9.45-9.45,9.45c-5.22,0-9.45-4.23-9.45-9.45c0-5.22,4.23-9.45,9.45-9.45
		C837.68,782.11,841.9,786.34,841.9,791.56z"/>
	<path class="st8" d="M1664.67,913.88H877.9c-10.17,0-18.48-8.32-18.48-18.48V272.07c0-10.17,8.32-18.48,18.48-18.48h786.76
		c10.17,0,18.48,8.32,18.48,18.48V895.4C1683.15,905.56,1674.83,913.88,1664.67,913.88z"/>
	<path class="st10" d="M884.32,878.35V289.11c0-6.63,5.38-12.01,12.01-12.01h749.91c6.63,0,12.01,5.38,12.01,12.01v589.24
		c0,6.63-5.38,12.01-12.01,12.01H896.33C889.7,890.36,884.32,884.99,884.32,878.35z"/>
	<path class="st1" d="M1630.21,872.63H912.36c-4.29,0-7.76-3.47-7.76-7.76V302.59c0-4.29,3.47-7.76,7.76-7.76h717.85
		c4.29,0,7.76,3.47,7.76,7.76v562.28C1637.97,869.16,1634.5,872.63,1630.21,872.63z"/>
	<path class="st10" d="M809.97,871.35c16.53,27.25,46.48,45.55,80.51,45.55h761.62c34.02,0,63.98-18.31,80.51-45.55H809.97z"/>
	<path class="st8" d="M819.82,884.72h902.94c3.65-4.16,6.96-8.62,9.85-13.37H809.97C812.85,876.1,816.17,880.56,819.82,884.72z"/>
	<rect x="962.26" y="638.29" class="st11" width="205.05" height="114.75"/>
	<g>
		<rect x="1162.82" y="344.54" class="st8" width="77.14" height="10.63"/>
		<rect x="1063.09" y="344.54" class="st8" width="47.09" height="10.63"/>
		<rect x="955.56" y="344.54" class="st8" width="93.29" height="10.63"/>
		<rect x="1124.92" y="344.54" class="st8" width="20.23" height="10.63"/>
		<rect x="1259.59" y="344.54" class="st8" width="46.93" height="10.63"/>
	</g>
	<g>
		<rect x="1162.82" y="375.58" class="st8" width="28.94" height="10.63"/>
		<rect x="1203.27" y="375.58" class="st8" width="28.94" height="10.63"/>
		<rect x="1015.12" y="375.58" class="st8" width="47.09" height="10.63"/>
		<rect x="955.56" y="375.58" class="st8" width="46.2" height="10.63"/>
		<rect x="1075.13" y="375.58" class="st8" width="77.54" height="10.63"/>
	</g>
	<g>
		<path class="st12" d="M1091.59,964.92c-4.88-15.65-14.34-81.86-16.46-107.79c-0.45-5.49-60.79-29.06-60.79-29.06
			c-35.32-0.9-53.5,12.96-53.5,12.96l84.81,28.65c0,38.25,32.61,95.94,32.61,95.94C1078.26,965.61,1091.59,964.92,1091.59,964.92z"
			/>
		<path class="st13" d="M1018.83,877.27l-25.19,87.71l14.39,3.14c6.27-20.69,42.52-91.6,43.5-100.03c0.42-3.59,0.16-6.37-1.18-7.49
			c-1.35-1.13-42-25.42-53.81-28.08c-15.82-3.55-39.3-9.25-39.3-9.25s-13.24,13.85-10.66,36.37
			C949.16,882.16,1018.83,877.27,1018.83,877.27z"/>
		<path class="st0" d="M984.84,723.03c0,0-27.6,2.45-28.86,9.97c-1.25,7.52,13.17,55.15,13.17,55.15l-14.02,37.43
			c0,0,39.81,9.8,59.21,2.49c1.84,0.84,4.98-39.29,4.98-39.29l6.91-19.72l8.77,29.75l20.07,28.22l13.17-10.66l-14.62-25.7
			c0,0-22.63-51.65-28.64-57.66C1013.68,721.72,984.84,723.03,984.84,723.03z"/>
		<path class="st14" d="M1006.72,725.02l-2.14-28.38h-20.69v26.51c-2.62,0.29,2.82,21.46,19.5,21.46
			C1003.39,744.61,1011.17,741.78,1006.72,725.02z"/>
		<path class="st15" d="M964.78,773.11c2.41,8.56,4.38,15.05,4.38,15.05l-14.02,37.43c0,0,30.29,7.45,50.9,4.5
			c-1.84-1.35-26.28-17.82-27.48-25C976.05,790.03,964.78,773.11,964.78,773.11z"/>
		<path class="st16" d="M1025.15,667.98c-1.75-7.27-13.09-9.37-31-7.26c-12.19,1.43-14.93,12.65-15.27,20.99
			c-0.18,0.04-0.37,0.07-0.55,0.12c-4.21,1.29-7.21,5.38-6.97,9.83c0.12,2.28,0.92,4.35,2.42,6.04c1.59,2.58,4.28,4.31,7.37,4.7
			c0.86,0.11,1.72,0.07,2.55-0.05c5.07,10.56,14.38,23.72,27.44,22.15C1030.28,711.11,1025.15,667.98,1025.15,667.98z"/>
		<path class="st17" d="M984.12,687.11c0,0-3.96-9.49,4.97-16.2c8.93-6.7,9.53,3.19,18.94,4.41c9.41,1.21,18.7,0.45,17.69,6.67
			c5.7-14.06-2.54-22.1-11.75-26.5c-9.21-4.4-23.63-6.31-33.65,2.05c-10.02,8.36-8.66,28.44-8.66,28.44
			C978.27,682.78,980.04,685.37,984.12,687.11z"/>
		<path class="st17" d="M980.33,657.54c0,0-8.32-22.34-24.07-16.81c-15.75,5.53-8.65,37.28-10.39,51.09
			c-1.74,13.81-11.64,14.42-15.19,8.28c-6.59,12.52,19.22,25.25,27.63,13.21c8.4-12.04,3.56-42.53,8.93-45.64s10.78,0.93,10.78,0.93
			L980.33,657.54z"/>
		<path class="st0" d="M956.61,730.5c-6.63,3.82-18.81,49.5-18.81,57.03s58.74,44.99,58.74,44.99s2.71-9.25,8.98-11.13
			c-1.25-0.63-43.89-41.39-43.89-41.39l11.29-31.95C972.92,748.05,972.92,721.09,956.61,730.5z"/>
		<polygon class="st8" points="992.05,838.27 1051.93,836.44 1090.81,850.86 1024.99,854.35 		"/>
		<polygon class="st10" points="1024.99,854.35 992.05,841.59 992.05,838.27 1027.6,851.09 		"/>
		<polygon class="st10" points="1024.99,854.35 1044.78,800.32 1110.24,803.83 1090.81,852.11 		"/>
		<path class="st8" d="M1065.2,824.22c-1.95,3.89-1.36,8.13,1.31,9.47c2.67,1.34,6.42-0.73,8.36-4.63c1.95-3.89,1.36-8.13-1.31-9.47
			C1070.89,818.26,1067.14,820.33,1065.2,824.22z"/>
		<path class="st16" d="M1005.53,821.39c0,0,23.83,18.81,21.32,20.07c-2.51,1.25-13.17,1.25-18.81-1.88
			c-5.64-3.14-11.49-7.06-11.49-7.06S998.63,822.01,1005.53,821.39z"/>
		<g>
			<path class="st17" d="M1008.66,963.73c4.23,4.29,18.62,10.79,25.71,12.54c7.6,1.88,6.27,8.26,0.72,8.26
				c-10.91,0-35.16-1.37-47.12-1.37c-1.88-5.64,1.36-13.19,5.17-18.27C994.29,963.34,1008.05,963.12,1008.66,963.73z"/>
		</g>
		<g>
			<path class="st17" d="M1094.57,963.73c4.23,4.29,18.62,10.79,25.71,12.54c7.6,1.88,6.27,8.26,0.72,8.26
				c-10.91,0-35.16-1.37-47.12-1.37c-1.88-5.64,1.36-13.19,5.17-18.27C1080.2,963.34,1093.96,963.12,1094.57,963.73z"/>
		</g>
	</g>
	<g>
		<rect x="963.37" y="593.68" class="st18" width="57.5" height="15.84"/>
		<rect x="1109.81" y="593.68" class="st18" width="57.5" height="15.84"/>
		<rect x="1036.59" y="593.68" class="st18" width="57.5" height="15.84"/>
	</g>
	<g>
		
			<rect x="1162.18" y="309.42" transform="matrix(0.9712 -0.2381 0.2381 0.9712 -45.8736 309.0034)" class="st19" width="187.6" height="69.89"/>
		
			<rect x="1167.61" y="323.02" transform="matrix(0.9712 -0.2381 0.2381 0.9712 -42.4953 303.9362)" class="st20" width="138.18" height="9.66"/>
		
			<rect x="1172.02" y="342.4" transform="matrix(0.9712 -0.2381 0.2381 0.9712 -47.3111 302.8403)" class="st20" width="115.46" height="9.66"/>
		
			<rect x="1177.38" y="367.9" transform="matrix(0.9712 -0.2381 0.2381 0.9712 -54.1017 297.6268)" class="st20" width="54.78" height="9.66"/>
		
			<rect x="1290.99" y="324.05" transform="matrix(0.9712 -0.2381 0.2381 0.9712 -40.7555 320.3881)" class="st0" width="29.34" height="9.66"/>
	</g>
	<rect x="961.2" y="409.23" class="st0" width="204.64" height="166.99"/>
	<g>
		<rect x="1181.16" y="505.54" class="st21" width="402.45" height="75.31"/>
		<rect x="1462.65" y="516.44" class="st0" width="108.91" height="53.51"/>
		<rect x="1195.88" y="519.68" class="st22" width="251.73" height="10.32"/>
		<rect x="1195.88" y="538.03" class="st22" width="251.73" height="10.32"/>
		<rect x="1195.88" y="556.38" class="st22" width="169.47" height="10.32"/>
	</g>
	<g>
		<g>
			<rect x="1181.25" y="634.64" class="st0" width="386.75" height="181.46"/>
			<rect x="1181.25" y="634.64" class="st23" width="386.75" height="30.09"/>
			<rect x="1190.63" y="707.51" class="st24" width="223.32" height="15.32"/>
			<rect x="1190.63" y="734.74" class="st24" width="200.27" height="15.32"/>
			<rect x="1190.63" y="761.97" class="st24" width="135.07" height="15.32"/>
			<rect x="1190.63" y="682.42" class="st24" width="80.5" height="15.32"/>
		</g>
		<g>
			<rect x="1435.7" y="681.67" class="st25" width="116.81" height="116.81"/>
			<path class="st26" d="M1506.05,739.32c1.83-2.47,2.93-5.53,2.93-8.84v-8.93c0-8.22-6.66-14.88-14.87-14.88
				c-8.22,0-14.88,6.66-14.88,14.88v8.93c0,3.49,1.21,6.69,3.22,9.22c-13.65,4.81-23.43,17.81-23.43,33.1h73.57
				C1532.59,772.8,1529.74,746.18,1506.05,739.32z"/>
		</g>
		<g>
			<circle class="st11" cx="1201.23" cy="650.44" r="7.59"/>
			<circle class="st27" cx="1225.56" cy="650.44" r="7.59"/>
			<circle class="st28" cx="1253.78" cy="650.44" r="7.59"/>
		</g>
	</g>
	<rect x="1436.32" y="337.3" class="st11" width="135.45" height="135.45"/>
	<g>
		<path class="st29" d="M1625.96,938.99c0,0,1.17,3.56-9.76,8.55c-10.93,4.99-22.46,3.23-25.29,7.41c-2.83,4.19-3.49,8.16-3.49,8.16
			h62.17c0,0-0.47-17.17-7.51-24.79C1642.97,939.96,1625.96,938.99,1625.96,938.99z"/>
		<path class="st29" d="M1693.67,938.96c0,0,1.12,3.43-9.38,8.22s-21.6,3.1-24.32,7.13c-2.72,4.03-3.36,7.84-3.36,7.84h59.77
			c0,0-0.45-16.5-7.22-23.83C1710.02,939.89,1693.67,938.96,1693.67,938.96z"/>
		<g>
			<polygon class="st0" points="1613.71,612.09 1568.57,620.02 1536.83,552.07 1585.43,548.1 			"/>
		</g>
		<g>
			<path class="st30" d="M1557.35,605.22c0.01-0.01,0.02-0.01,0.04,0C1557.23,605.28,1557.21,605.29,1557.35,605.22z"/>
		</g>
		<path class="st16" d="M1644.96,484.61c0,0-5.95,11.9-5.95,22.82c0,7.63,0.97,18.65,1.55,24.59c0.21,2.16,2.35,3.59,4.43,2.95
			l8.9-2.74l-0.5,12.9l24.84-0.43l5.42-52.15C1683.65,492.55,1662.81,469.73,1644.96,484.61z"/>
		<path class="st17" d="M1646.83,511.99c0,0,1.4-10.33,9.19-8.19c7.79,2.14-1.14,12.55-1.14,12.55l7.44,13.39
			c5.45,1.97,11.47,2.11,17.36-0.5c0,0,8.27-25.13,8.27-33.07s-7.23-13.3-7.23-13.3s-19.39-9.69-29.8-9.19
			c-10.42,0.5-11.41,10.91-11.41,10.91s-3.97,7.94,0,11.41C1643.47,499.49,1646.83,511.99,1646.83,511.99z"/>
		<path class="st31" d="M1679.35,537.52l-1.12,7.18l-25.66,0.1C1652.56,544.8,1657.52,536.86,1679.35,537.52z"/>
		<path class="st16" d="M1569.56,601.67c0,0,1.8-5.63-5.46-8.93c0.19-1.32-1.45-7.9-2.98-9.42c-1.52-1.52-2.48,6.94-2.48,6.94
			s-7.1-12.65-8.93-9.42c-1.82,3.22,16.04,28.11,16.53,29.1C1566.75,610.93,1569.56,601.67,1569.56,601.67z"/>
		<path class="st17" d="M1636.36,683.35l-17.2,145.5l3.49,112.78l21.64-1.55c0,0,6.12-59.32,6.61-74.2
			c0.5-14.88-3.97-37.7-3.97-37.7l21.82-89.94l3.63,0.66l1,88.62l19.88,112.56l18.19,0.88c0,0,0.45-58.05-1.04-72.43
			c-1.49-14.38-9.26-43.15-9.26-43.15l7.94-91.76c0,0,7.94-24.14-6.28-51.25C1701.01,682.52,1636.36,683.35,1636.36,683.35z"/>
		<path class="st32" d="M1652.56,544.8c0,0-30.75,9.92-36.37,15.54c-5.62,5.62-21.74,63.56-21.74,63.56l-24.3-24.35l-7.53,17.66
			c0,0,28.44,42.33,37.37,43.65c8.93,1.32,29.1-53.57,29.1-53.57s1.83,29.98,5.29,44.97c3.97,17.2,1.98,31.08,1.98,31.08
			c27.52,5,50.92,3.97,66.47-0.99l7.7-57.77c0,0,10.49,1.22,13.79-2.41c3.31-3.64-11.9-63.49-15.21-68.12s-30.88-9.36-30.88-9.36
			L1652.56,544.8z"/>
		<path class="st31" d="M1682.51,584.51c-0.16-1.17-2.1-0.89-2.06,0.28c0.92,24.86,0.08,49.1-3.82,73.71
			c-0.26,1.65,2.19,2.41,2.56,0.71C1684.46,634.88,1685.98,609.21,1682.51,584.51z"/>
		<path class="st31" d="M1710.73,602.93c-0.17-0.83-1.43-0.61-1.44,0.2c-0.27,14.53-2.06,28.41-4.82,42.68
			c-2.45,12.67-4.69,25.36-3.87,38.32c0.11,1.81,2.92,1.84,2.84,0c-0.63-14.97,2.42-29.42,5.14-44.05
			C1710.85,627.92,1713.18,615.23,1710.73,602.93z"/>
		<path class="st31" d="M1631.9,602.49c-8.26,5.25-11.36,15.52-14.52,24.26c-4.28,11.82-8.55,23.44-17.86,32.31
			c-1.39,1.32,0.68,3.36,2.09,2.09c17.19-15.48,16.37-40.78,31.04-57.7C1633.08,602.96,1632.52,602.09,1631.9,602.49z"/>
		<path class="st29" d="M1703.16,678.06c0,0-41.67,5.29-66.8-2.65c0.66,0,0,7.94,0,7.94s32.04,12.02,68.78,2.65
			C1704.85,685.88,1703.16,678.06,1703.16,678.06z"/>
	</g>
	<g>
		<path class="st33" d="M1272.03,847.41c0,0-3.45,7.52-9.41,8.78c-5.96,1.25-21.63,4.7-24.14,6.9c-2.51,2.19-2.51,7.84-2.51,7.84
			h49.76c0,0-0.09-15.07-2.98-22.9C1283.94,848.04,1272.03,847.41,1272.03,847.41z"/>
		<path class="st33" d="M1367.97,847.41c0,0-3.45,7.52-9.41,8.78c-5.96,1.25-21.63,4.7-24.14,6.9c-2.51,2.19-2.51,7.84-2.51,7.84
			h49.76c0,0-0.09-15.07-2.98-22.9C1379.88,848.04,1367.97,847.41,1367.97,847.41z"/>
		<path class="st34" d="M1361.87,358.37c0,0-13.86-3.54-14.7-1.33c-0.84,2.21,21.42,8.79,21.42,8.79l20.05,55.58l-7.5,17.78
			l13.8,15.05c0,0,15.05-20.38,16.3-26.34c1.25-5.96-35.74-65.84-35.74-65.84s-7.34-23.33-8.47-24.46
			c-1.12-1.12-14.38-0.42-17.38-0.37c-3,0.05,8.74,11.94,8.74,11.94L1361.87,358.37z"/>
		<path class="st34" d="M1307.95,399.51c0,0-6.6,9.27-8.02,19.15c-1.41,9.88,0.47,19.28,0.47,19.28l12.12-0.4v11.34h24.09
			c0,0,0.47-8.59,1.41-13.29s7.52-13.64,7.52-13.64l-10.82-30.57l-15.52-1.41L1307.95,399.51z"/>
		<path class="st17" d="M1314.04,413.95c0,0,4.23-9.88,9.41-6.11c5.17,3.76-1.41,11.76-1.41,11.76s3.29,13.64,8.94,15.52
			c5.64,1.88,5.64,1.88,5.64,1.88s14.58-13.64,16.93-17.4c2.35-3.76-3.76-25.4-7.99-30.1c-4.23-4.7-22.57-4.23-23.99-6.58
			c-1.41-2.35-6.11-6.58-10.82-4.7c-4.7,1.88-3.76,17.4-3.76,17.4s5.82,5.01,6.2,8.62c0.38,3.61-2.31,8.39-2.31,8.39L1314.04,413.95
			z"/>
		<path class="st17" d="M1291.25,449.6c0,0,24.04-3.51,37.83-3.82c13.8-0.31,35.74,6.9,35.74,6.9l15.97-17.1l20.35,19.12
			c0,0-17.32,25.56-22.9,31.52c-5.58,5.96-9.66,33.87-10.91,42.33c-1.25,8.47-4.39,58-4.39,58s-14.74,17.56-75.25-1.57
			c-0.63-0.63,2.51-36.37,2.19-45.15c-0.31-8.78-8.15-38.56-9.72-45.78c-1.57-7.21-26.57-21.64-26.57-21.64s-3.09-17.57,8.45-26.02
			C1263.56,447.35,1291.25,449.6,1291.25,449.6z"/>
		<path class="st34" d="M1235.34,377.74c0,0-9.09,8.47-9.72,11.91c-0.63,3.45,12.51,42.73,12.51,42.73l23.92,14.01l-8.45,26.02
			c0,0-26.11-18.18-29.87-23.51c-3.76-5.33-10.35-58.63-10.35-58.63s-8.47-10.66-9.09-13.48c-0.63-2.82-2.6-12.05-1.14-13.86
			c1.46-1.81,11.16-11.85,12.58-8.87c1.42,2.98,6.64,24.7,6.64,24.7S1233.15,373.98,1235.34,377.74z"/>
		<path class="st13" d="M1287.7,584.98l-13.64,128.55l-7.05,136.39l23.51,0.94c0,0,14.58-90.49,14.82-104.27
			c0.23-13.78-0.24-30.24-0.24-30.24l15.05-68.66h8.47l17.4,89.36l17.87,110.99l18.81,0.94c0,0,2.82-69.13,0-83.24
			c-2.82-14.11-7.05-27.75-7.05-27.75l-8.47-92.65c0,0,7.52-32.92-4.23-58.79C1360.6,581.85,1287.7,584.98,1287.7,584.98z"/>
	</g>
	<polygon class="st23" points="1144.03,438.75 1128.74,438.75 1128.74,423.46 1119.21,423.46 1119.21,438.75 1103.92,438.75 
		1103.92,448.29 1119.21,448.29 1119.21,463.57 1128.74,463.57 1128.74,448.29 1144.03,448.29 	"/>
	<path class="st8" d="M1001.76,556.7c-13.18,0-23.9-10.72-23.9-23.9c0-13.18,10.73-23.9,23.9-23.9c13.18,0,23.9,10.72,23.9,23.9
		C1025.66,545.98,1014.94,556.7,1001.76,556.7z M1001.76,521.37c-6.3,0-11.43,5.13-11.43,11.43c0,6.3,5.13,11.43,11.43,11.43
		c6.3,0,11.43-5.13,11.43-11.43C1013.19,526.5,1008.06,521.37,1001.76,521.37z"/>
	<polygon class="st8" points="1736.6,337.16 1721.32,337.16 1721.32,321.88 1711.78,321.88 1711.78,337.16 1696.49,337.16 
		1696.49,346.7 1711.78,346.7 1711.78,361.99 1721.32,361.99 1721.32,346.7 1736.6,346.7 	"/>
	<path class="st9" d="M1660.22,232.85c0,5.21-4.23,9.45-9.45,9.45c-5.22,0-9.45-4.23-9.45-9.45c0-5.22,4.23-9.45,9.45-9.45
		C1655.99,223.4,1660.22,227.63,1660.22,232.85z"/>
	<path class="st19" d="M1475.82,398.68c-13.18,0-23.9-10.72-23.9-23.9c0-13.18,10.73-23.9,23.9-23.9c13.18,0,23.9,10.72,23.9,23.9
		C1499.72,387.96,1489,398.68,1475.82,398.68z M1475.82,363.36c-6.3,0-11.43,5.13-11.43,11.43c0,6.3,5.13,11.43,11.43,11.43
		c6.3,0,11.43-5.13,11.43-11.43C1487.25,368.48,1482.12,363.36,1475.82,363.36z"/>
	<path class="st19" d="M1602.8,240.66c-13.18,0-23.9-10.72-23.9-23.9c0-13.18,10.73-23.9,23.9-23.9s23.9,10.72,23.9,23.9
		C1626.7,229.94,1615.98,240.66,1602.8,240.66z M1602.8,205.34c-6.3,0-11.43,5.13-11.43,11.43c0,6.3,5.13,11.43,11.43,11.43
		c6.3,0,11.43-5.13,11.43-11.43C1614.23,210.46,1609.1,205.34,1602.8,205.34z"/>
</g>
</svg>
