<svg xmlns="http://www.w3.org/2000/svg" viewBox="0 0 1500 540"><defs><style>.cls-1,.cls-2,.cls-3{fill:none;stroke-linecap:round;}.cls-1{stroke:#273a50;}.cls-1,.cls-2,.cls-3,.cls-4{stroke-miterlimit:10;}.cls-1,.cls-4{stroke-width:10px;}.cls-2,.cls-3{stroke:#0c1821;}.cls-2{stroke-width:9px;}.cls-3{stroke-width:8px;}.cls-4{fill:#ccc9dc;stroke:#ccc9dc;}.cls-5{fill:#273a50;}.cls-6{fill:#0c1821;}</style></defs><title>Mesa de trabajo 1</title><g id="Capa_7" data-name="Capa 7"><path class="cls-1" d="M282.74,137.14h0c-6.89-10.81-11.67-24.32-13.8-39h0a.44.44,0,0,0-.88,0h0c-2.13,14.68-6.91,28.19-13.8,39h0"/><path class="cls-2" d="M219.16,124.68c-5.69-8.82-16.07,9.19-5.55,15.83,3.62,2.29,7.52,1.67,10.81-1.29,2.64-2.37,4.45-5.79,5.94-9.29,6.78-16,11-33.21,17.23-49.54l20.5-54.08a.43.43,0,0,1,.82,0l20.5,54.08c6.2,16.33,10.45,33.51,17.23,49.54,1.49,3.5,3.3,6.92,5.94,9.29,3.29,3,7.19,3.58,10.81,1.29,10.52-6.64.14-24.65-5.55-15.83"/><path class="cls-1" d="M282.74,402.86h0c-6.89,10.81-11.67,24.32-13.8,39h0a.44.44,0,0,1-.88,0h0c-2.13-14.68-6.91-28.19-13.8-39h0"/><path class="cls-2" d="M219.16,415.32c-5.69,8.82-16.07-9.19-5.55-15.83,3.62-2.29,7.52-1.67,10.81,1.29,2.64,2.37,4.45,5.79,5.94,9.29,6.78,16,11,33.21,17.23,49.54l20.5,54.08a.43.43,0,0,0,.82,0l20.5-54.08c6.2-16.33,10.45-33.51,17.23-49.54,1.49-3.5,3.3-6.92,5.94-9.29,3.29-3,7.19-3.58,10.81-1.29,10.52,6.64.14,24.65-5.55,15.83"/><path class="cls-1" d="M401.36,284.24h0c10.81-6.89,24.32-11.67,39-13.8h0a.44.44,0,0,0,0-.88h0c-14.68-2.13-28.19-6.91-39-13.8h0"/><path class="cls-2" d="M413.82,220.66c8.82-5.69-9.19-16.07-15.83-5.55-2.29,3.62-1.67,7.52,1.29,10.81,2.37,2.64,5.79,4.45,9.29,5.94,16,6.78,33.21,11,49.54,17.23l54.08,20.5a.43.43,0,0,1,0,.82l-54.08,20.5c-16.33,6.2-33.51,10.45-49.54,17.23-3.5,1.49-6.92,3.3-9.29,5.94-3,3.29-3.58,7.19-1.29,10.81,6.64,10.52,24.65.14,15.83-5.55"/><path class="cls-1" d="M135.64,284.24h0c-10.81-6.89-24.32-11.67-39-13.8h0a.44.44,0,0,1,0-.88h0c14.68-2.13,28.19-6.91,39-13.8h0"/><path class="cls-2" d="M123.18,220.66c-8.82-5.69,9.19-16.07,15.83-5.55,2.29,3.62,1.67,7.52-1.29,10.81-2.37,2.64-5.79,4.45-9.29,5.94-16,6.78-33.21,11-49.54,17.23l-54.08,20.5a.43.43,0,0,0,0,.82l54.08,20.5c16.33,6.2,33.51,10.45,49.54,17.23,3.5,1.49,6.92,3.3,9.29,5.94,3,3.29,3.58,7.19,1.29,10.81-6.64,10.52-24.65.14-15.83-5.55"/><path class="cls-3" d="M376.73,213.94l38.95-87.61a2.66,2.66,0,0,0-3.51-3.51l-87.61,39"/><path class="cls-4" d="M377.53,156.38,343,174.15a3.41,3.41,0,0,0-.85,5.45l16.79,16.79a3.41,3.41,0,0,0,5.45-.85L382.12,161A3.41,3.41,0,0,0,377.53,156.38Z"/><path class="cls-3" d="M212.44,378.23l-87.61,38.95a2.66,2.66,0,0,1-3.51-3.51l39-87.61"/><path class="cls-4" d="M154.88,379l17.77-34.57a3.41,3.41,0,0,1,5.45-.85l16.79,16.79a3.41,3.41,0,0,1-.85,5.45l-34.57,17.77A3.41,3.41,0,0,1,154.88,379Z"/><path class="cls-3" d="M324.56,378.23l87.61,38.95a2.66,2.66,0,0,0,3.51-3.51l-38.95-87.61"/><path class="cls-4" d="M382.12,379l-17.77-34.57a3.41,3.41,0,0,0-5.45-.85L342.11,360.4a3.41,3.41,0,0,0,.85,5.45l34.57,17.77A3.41,3.41,0,0,0,382.12,379Z"/><path class="cls-3" d="M160.27,213.94l-39-87.61a2.66,2.66,0,0,1,3.51-3.51l87.61,39"/><path class="cls-4" d="M159.47,156.38,194,174.15a3.41,3.41,0,0,1,.85,5.45L178.1,196.39a3.41,3.41,0,0,1-5.45-.85L154.88,161A3.41,3.41,0,0,1,159.47,156.38Z"/><path class="cls-5" d="M268.5,177.8A92.2,92.2,0,1,1,176.3,270a92.3,92.3,0,0,1,92.2-92.2m0-14A106.2,106.2,0,1,0,374.7,270,106.2,106.2,0,0,0,268.5,163.8Z"/><path class="cls-6" d="M245,261.93l-32.86,10.86,28.44,10.85L238,296.9l-43.81-17.48,3-14.8L248,247.13Z"/><path class="cls-6" d="M285.55,224.75h16.82l-49.29,90.5H236.26Z"/><path class="cls-6" d="M342.82,264.62l-3,14.8L289,296.9l3-14.79,32.86-10.86-28.44-10.86,2.69-13.26Z"/><path d="M628.49,309.38l-.3-54.21-26.3,44.13H589l-26.15-42.67v52.75H536.14V207.09H560l35.94,59,35.07-59h23.82l.29,102.29Z"/><path d="M738.08,237.85q10.38,9,10.38,27.55v44H722.59V299.15q-6,11.55-23.38,11.55a36.63,36.63,0,0,1-15.93-3.22,23.59,23.59,0,0,1-10.15-8.69,23,23,0,0,1-3.44-12.5q0-11.25,8.63-17.46t26.59-6.21h15.78q-.74-12.57-16.8-12.57a38.42,38.42,0,0,0-11.54,1.83,30.77,30.77,0,0,0-9.94,5l-9.35-18.85a51.61,51.61,0,0,1,16-6.79A76.07,76.07,0,0,1,708,228.86Q727.71,228.86,738.08,237.85Zm-22.65,53a12.92,12.92,0,0,0,5.26-6.87v-6.86h-12q-12.13,0-12.13,8a7.08,7.08,0,0,0,2.78,5.85,12,12,0,0,0,7.6,2.19A15.37,15.37,0,0,0,715.43,290.82Z"/><path d="M848,230.18l-34.2,82.41q-6,14.63-14.61,20.53t-21,5.93a42.32,42.32,0,0,1-12.64-2,30.48,30.48,0,0,1-10.3-5.19l9.64-19.43a16.89,16.89,0,0,0,5.63,3.43,18.64,18.64,0,0,0,6.65,1.24,12,12,0,0,0,6.5-1.6,12.3,12.3,0,0,0,4.31-5.12L754,230.18h28.5l19.43,48.37,19.58-48.37Z"/><path d="M916.21,237.85q10.38,9,10.37,27.55v44H900.72V299.15q-6,11.55-23.38,11.55a36.63,36.63,0,0,1-15.93-3.22,23.54,23.54,0,0,1-10.15-8.69,23,23,0,0,1-3.44-12.5q0-11.25,8.62-17.46t26.6-6.21h15.78q-.74-12.57-16.8-12.57a38.54,38.54,0,0,0-11.55,1.83,30.87,30.87,0,0,0-9.94,5l-9.35-18.85a51.73,51.73,0,0,1,16-6.79,75.88,75.88,0,0,1,18.92-2.42Q905.84,228.86,916.21,237.85Zm-22.65,53a13,13,0,0,0,5.26-6.87v-6.86h-12q-12.14,0-12.13,8a7.05,7.05,0,0,0,2.78,5.85,11.94,11.94,0,0,0,7.59,2.19A15.36,15.36,0,0,0,893.56,290.82Z"/><path d="M1019.45,237.63q9,8.77,9,26.45v45.3h-27.77V268.61q0-16.22-13-16.22a14.87,14.87,0,0,0-11.48,4.68q-4.31,4.68-4.31,14v38.29H944.12v-79.2h26.45v8.62a31.53,31.53,0,0,1,11.11-7.38,37.67,37.67,0,0,1,14-2.56Q1010.46,228.86,1019.45,237.63Z"/><path d="M1111.8,304.63a50.75,50.75,0,0,1-20.1-18.92,55.33,55.33,0,0,1,0-54.94,50.77,50.77,0,0,1,20.1-18.93,60.51,60.51,0,0,1,28.86-6.79,62,62,0,0,1,25.28,5,48.77,48.77,0,0,1,18.7,14.32L1166.23,241q-9.93-12-24.11-12a29.8,29.8,0,0,0-14.83,3.65A25.43,25.43,0,0,0,1117.2,243a34.36,34.36,0,0,0,0,30.54,25.4,25.4,0,0,0,10.09,10.3,29.8,29.8,0,0,0,14.83,3.65q14.18,0,24.11-12l18.41,16.66a48.67,48.67,0,0,1-18.7,14.32,62,62,0,0,1-25.28,5A60.51,60.51,0,0,1,1111.8,304.63Z"/><path d="M1210.51,305.44a39.15,39.15,0,0,1-21.78-35.81,39,39,0,0,1,21.7-35.58,53.78,53.78,0,0,1,46.1,0,38.86,38.86,0,0,1,15.93,14.47,40.11,40.11,0,0,1-15.93,56.92,53,53,0,0,1-46,0Zm34.92-21.85q4.66-5,4.67-14,0-8.76-4.67-13.73a16.94,16.94,0,0,0-24,0q-4.68,5-4.67,13.73,0,8.92,4.67,14a16.77,16.77,0,0,0,24,0Z"/><path d="M1375.19,201V309.38h-26.45v-7.89q-7.74,9.21-23.24,9.21a39.25,39.25,0,0,1-19.72-5.05,36.39,36.39,0,0,1-14.11-14.39,47.58,47.58,0,0,1,0-43.18,36.15,36.15,0,0,1,14.11-14.25,39.82,39.82,0,0,1,19.72-5q14.18,0,21.92,8.19V201Zm-32,82.64q4.66-5,4.67-14,0-8.76-4.6-13.73a15.51,15.51,0,0,0-11.91-5,15.72,15.72,0,0,0-12,5q-4.68,5-4.68,13.73,0,8.92,4.68,14a16.59,16.59,0,0,0,23.82,0Z"/><path d="M1473.53,276.79H1416a16.11,16.11,0,0,0,6.8,9.43q5,3.28,12.64,3.29a27.44,27.44,0,0,0,9.87-1.61,29.15,29.15,0,0,0,8.39-5.26l14.62,15.19q-11.55,12.87-33.76,12.87-13.87,0-24.4-5.26A38.79,38.79,0,0,1,1388,269.63a39.08,39.08,0,0,1,21.19-35.5,49.8,49.8,0,0,1,43.84-.37,37.2,37.2,0,0,1,15.27,14.18q5.63,9.27,5.63,22Q1474,270.22,1473.53,276.79ZM1421,252.24a16.49,16.49,0,0,0-5.48,9.94H1448a16.54,16.54,0,0,0-5.48-9.94,17.63,17.63,0,0,0-21.48,0Z"/></g></svg>